<svg xmlns:dc="http://purl.org/dc/elements/1.1/" xmlns:cc="http://creativecommons.org/ns#" xmlns:rdf="http://www.w3.org/1999/02/22-rdf-syntax-ns#" xmlns:svg="http://www.w3.org/2000/svg" xmlns="http://www.w3.org/2000/svg" xmlns:sodipodi="http://sodipodi.sourceforge.net/DTD/sodipodi-0.dtd" xmlns:inkscape="http://www.inkscape.org/namespaces/inkscape" id="Layer_1" height="491.49179" viewBox="0 0 535.55786 490.17187" width="537" sodipodi:docname="pictogram.svg" inkscape:version="0.92.4 (5da689c313, 2019-01-14)" style=""><metadata></metadata><defs id="defs11"></defs><path id="circle2" style="fill: rgb(255, 255, 255); stroke: rgb(53, 67, 87); stroke-width: 4.98657; stroke-miterlimit: 4; stroke-opacity: 1;" d="M121.08243100000001,55.94743A43.480999,43.480999 0,1,1 208.044429,55.94743A43.480999,43.480999 0,1,1 121.08243100000001,55.94743" class="GTzZfpbC_0"></path><path d="m 157.37043,112.02743 c -2.045,0 -3.589,1.855 -3.218,3.866 l 2.679,14.512 c 0.286,1.552 1.64,2.678 3.218,2.678 h 10.912 c 1.578,0 2.932,-1.126 3.218,-2.678 l 2.679,-14.512 c 0.371,-2.011 -1.173,-3.866 -3.218,-3.866 z" id="path4" style="fill: rgb(255, 255, 255); stroke: rgb(53, 67, 87); stroke-width: 4.98657; stroke-miterlimit: 4; stroke-opacity: 1;" inkscape:connector-curvature="0" class="GTzZfpbC_1"></path><path d="m 512.57543,261.13943 c -13.272,0 -102.712,0 -117.824,0 v -24.858 h 52.515 c 6.663,0 12.065,-5.402 12.065,-12.064 v -98.792 c 0,-6.663 -5.401,-12.064 -12.064,-12.064 h -153.237 c -6.663,0 -12.065,5.402 -12.065,12.064 v 98.792 c 0,6.663 5.401,12.064 12.064,12.064 h 52.018 v 24.858 h -73.971 v -99.61 c 0,-0.035 0,-0.07 0,-0.105 -0.136,-27.238 -22.576,-49.397 -50.022,-49.397 h -26.921 c -1.286,6.91 -8.112,40.334 -21.543,50.552 l 2.25,-10.688 c 0.074,-0.353 0.077,-0.717 0.007,-1.071 l -2.643,-12.434 c -0.247,-1.258 -1.35,-2.165 -2.633,-2.165 h -10.135 c -1.282,0 -2.385,0.907 -2.632,2.165 l -2.643,12.434 c -0.07,0.354 -0.067,0.718 0.007,1.071 l 2.25,10.688 c -13.431,-10.219 -20.257,-43.642 -21.543,-50.552 h -27.185 c -27.445999,0 -49.884999,22.16 -50.021999,49.397 v 0.105 79.689 c 0,9.296 6.053,17.167 14.428,19.921 -3.298,0 -47.247,0 -50.114,0 -5.808,0 -10.516,4.708 -10.516,10.516 v 10.39 c 0,5.808 4.708,10.516 10.516,10.516 h 22.136 v 185.144 H 490.43943 v -185.144 h 22.136 c 5.808,0 10.516,-4.708 10.516,-10.516 v -10.39 c 0,-5.808 -4.708,-10.516 -10.516,-10.516 z m -324.54,0 h -16.922 c 8.375,-2.754 14.428,-10.625 14.428,-19.921 0,-11.586 -9.392,-20.978 -20.978,-20.978 h -63.939 c 0,-52.322 0,-6.158 0,-58.636 0.039,-4.135 3.725,-7.622 8.066,-7.622 h 1.12 v 56.443 h 54.753 c 17.006,0 30.792,13.786 30.792,30.792 10e-4,7.6 -2.758,14.551 -7.32,19.922 z m 42.086,0 h -9.186 v -107.157 h 1.12 c 4.341,0 8.028,3.487 8.066,7.622 z m 140.527,-69.982 c -9.022,0 -16.336,-7.314 -16.336,-16.336 0,-9.022 7.314,-16.336 16.336,-16.336 9.022,0 16.336,7.314 16.336,16.336 0,9.022 -7.314,16.336 -16.336,16.336 z" id="path6" style="fill: rgb(255, 255, 255); stroke: rgb(53, 67, 87); stroke-width: 4.98657; stroke-miterlimit: 4; stroke-opacity: 1;" inkscape:connector-curvature="0" class="GTzZfpbC_2"></path><style id="style820" type="text/css">
	.st0{fill:#FFFFFF;stroke:#354357;stroke-width:5;stroke-miterlimit:10;}
	.st1{fill:#354357;}
</style><style data-made-with="vivus-instant">.GTzZfpbC_0{stroke-dasharray:274 276;stroke-dashoffset:275;animation:GTzZfpbC_draw 3400ms linear 0ms forwards;}.GTzZfpbC_1{stroke-dasharray:78 80;stroke-dashoffset:79;animation:GTzZfpbC_draw 3400ms linear 850ms forwards;}.GTzZfpbC_2{stroke-dasharray:3090 3092;stroke-dashoffset:3091;animation:GTzZfpbC_draw 3400ms linear 1700ms forwards;}@keyframes GTzZfpbC_draw{100%{stroke-dashoffset:0;}}@keyframes GTzZfpbC_fade{0%{stroke-opacity:1;}95.91836734693878%{stroke-opacity:1;}100%{stroke-opacity:0;}}</style></svg>